<svg width="24" height="24" viewBox="0 0 24 24" fill="none" xmlns="http://www.w3.org/2000/svg">
<path d="M12 22.08C11.7 22.08 11.4 22.01 11.15 21.87C9.28001 20.85 6.00001 19.77 3.94001 19.5L3.65001 19.46C2.34001 19.3 1.26001 18.07 1.26001 16.74V4.66001C1.26001 3.87001 1.57001 3.15001 2.14001 2.63001C2.71001 2.11001 3.45001 1.86001 4.23001 1.93001C6.42001 2.11001 9.74001 3.21001 11.62 4.38001L11.86 4.52001C11.93 4.55001 12.08 4.56001 12.14 4.52001L12.3 4.42001C12.97 4.00001 13.81 3.59001 14.73 3.22001C14.8445 3.17585 14.9679 3.16006 15.0898 3.17399C15.2117 3.18792 15.3285 3.23116 15.43 3.30001C15.64 3.44001 15.76 3.67001 15.76 3.92001V6.60001L16.59 6.05001C16.84 5.88001 17.17 5.88001 17.42 6.05001L18.25 6.60001V2.78001C18.25 2.42001 18.51 2.11001 18.86 2.04001C19.15 1.99001 19.44 1.95001 19.7 1.93001H19.82C20.55 1.87001 21.3 2.12001 21.86 2.64001C22.43 3.16001 22.74 3.88001 22.74 4.67001V16.74C22.74 18.08 21.66 19.3 20.34 19.46L20.01 19.5C17.95 19.77 14.65 20.86 12.82 21.87C12.6 22.01 12.3 22.08 12 22.08ZM3.98001 3.41001C3.66001 3.41001 3.37001 3.52001 3.14001 3.73001C2.89001 3.96001 2.75001 4.29001 2.75001 4.66001V16.74C2.75001 17.33 3.26001 17.9 3.83001 17.98L4.13001 18.02C6.38001 18.32 9.83001 19.45 11.83 20.55C11.92 20.59 12.05 20.6 12.1 20.58C14.11 19.47 17.57 18.33 19.83 18.03L20.17 17.99C20.74 17.92 21.25 17.34 21.25 16.75V4.68001C21.25 4.31001 21.11 3.99001 20.86 3.75001C20.61 3.52001 20.26 3.41001 19.9 3.43001H19.76V8.00001C19.76 8.28001 19.61 8.53001 19.36 8.66001C19.11 8.79001 18.82 8.78001 18.59 8.62001L17.01 7.57001L15.43 8.62001C15.2 8.77001 14.91 8.79001 14.66 8.66001C14.5401 8.59623 14.4396 8.50124 14.3692 8.38506C14.2988 8.26889 14.261 8.13585 14.26 8.00001V5.07001C13.83 5.28001 13.44 5.49001 13.1 5.69001L12.94 5.79001C12.39 6.13001 11.61 6.13001 11.08 5.80001L10.84 5.65001C9.15001 4.59001 6.07001 3.57001 4.11001 3.41001H3.98001Z" fill="#9A9A9A"/>
<path d="M12 21.238C11.59 21.238 11.25 20.898 11.25 20.488V5.48799C11.25 5.07799 11.59 4.73799 12 4.73799C12.41 4.73799 12.75 5.07799 12.75 5.48799V20.488C12.75 20.908 12.41 21.238 12 21.238ZM19 8.74899C18.85 8.74899 18.71 8.70899 18.58 8.61899L17 7.56899L15.42 8.61899C15.19 8.76899 14.9 8.78899 14.65 8.65899C14.5301 8.59514 14.4297 8.50012 14.3593 8.38396C14.2889 8.26781 14.2511 8.13481 14.25 7.99899V3.91899C14.25 3.60899 14.44 3.33899 14.72 3.21899C16.1 2.66899 17.61 2.23899 18.88 2.03899C19.1 1.99899 19.32 2.06899 19.49 2.20899C19.66 2.34899 19.75 2.55899 19.75 2.77899V7.99899C19.75 8.27899 19.6 8.52899 19.35 8.65899C19.2427 8.71785 19.1224 8.7488 19 8.74899ZM17 5.91899C17.14 5.91899 17.29 5.95899 17.42 6.04899L18.25 6.59899V3.68899C17.45 3.86899 16.58 4.12899 15.75 4.43899V6.59899L16.58 6.04899C16.7036 5.96411 16.8501 5.91878 17 5.91899Z" fill="#9A9A9A"/>
</svg>
